HIERARCHY
ROOT Hips
{
	OFFSET 0.000000 71.206352 2.654994
	CHANNELS 6 Xposition Yposition Zposition Xrotation Yrotation Zrotation
	JOINT Pelvis
	{
		OFFSET 0.000000 0.000000 0.000000
		CHANNELS 3 Xrotation Yrotation Zrotation
		JOINT LeftUpLeg
		{
			OFFSET 6.797117 -2.508530 -1.318654
			CHANNELS 3 Xrotation Yrotation Zrotation
			JOINT LeftLeg
			{
				OFFSET 2.604768 -29.125713 0.690240
				CHANNELS 3 Xrotation Yrotation Zrotation
				JOINT LeftFoot
				{
					OFFSET 2.495626 -29.462662 -0.266779
					CHANNELS 3 Xrotation Yrotation Zrotation
					JOINT LeftToeBase
					{
						OFFSET 3.145477 -8.630991 16.059889
						CHANNELS 3 Xrotation Yrotation Zrotation
						End Site
						{
							OFFSET 0.000000 18.501570 0.000000
						}
					}
				}
			}
			JOINT Left_ShortSleeve
			{
				OFFSET 1.173896 -10.418373 1.153777
				CHANNELS 3 Xrotation Yrotation Zrotation
				End Site
				{
					OFFSET 0.000000 19.898849 0.000000
				}
			}
		}
		JOINT RightUpLeg
		{
			OFFSET -6.797117 -2.508530 -1.318654
			CHANNELS 3 Xrotation Yrotation Zrotation
			JOINT RightLeg
			{
				OFFSET -2.618195 -29.124561 0.688025
				CHANNELS 3 Xrotation Yrotation Zrotation
				JOINT RightFoot
				{
					OFFSET -2.482200 -29.463818 -0.264565
					CHANNELS 3 Xrotation Yrotation Zrotation
					JOINT RightToeBase
					{
						OFFSET -3.115344 -8.682778 16.113401
						CHANNELS 3 Xrotation Yrotation Zrotation
						End Site
						{
							OFFSET 0.000000 18.567112 0.000000
						}
					}
				}
			}
			JOINT Right_ShortSleeve
			{
				OFFSET -1.173896 -10.418373 1.153777
				CHANNELS 3 Xrotation Yrotation Zrotation
				End Site
				{
					OFFSET 0.000000 19.898849 0.000000
				}
			}
		}
	}
	JOINT Spine
	{
		OFFSET 0.000000 13.368111 0.470529
		CHANNELS 3 Xrotation Yrotation Zrotation
		JOINT Spine1
		{
			OFFSET 0.146996 13.837402 0.538789
			CHANNELS 3 Xrotation Yrotation Zrotation
			JOINT Spine2
			{
				OFFSET 0.167995 16.242874 -1.435485
				CHANNELS 3 Xrotation Yrotation Zrotation
				JOINT Neck
				{
					OFFSET 0.217193 18.631516 -1.679142
					CHANNELS 3 Xrotation Yrotation Zrotation
					JOINT Head
					{
						OFFSET 0.000000 6.599380 1.385859
						CHANNELS 3 Xrotation Yrotation Zrotation
						JOINT Hat
						{
							OFFSET -0.532184 27.220581 -10.096070
							CHANNELS 3 Xrotation Yrotation Zrotation
							End Site
							{
								OFFSET 0.000000 22.029861 0.000000
							}
						}
						JOINT HairD
						{
							OFFSET -10.777430 17.437408 -1.325938
							CHANNELS 3 Xrotation Yrotation Zrotation
							JOINT HairD1
							{
								OFFSET -3.290256 -11.051163 1.062188
								CHANNELS 3 Xrotation Yrotation Zrotation
								End Site
								{
									OFFSET 0.000000 11.579391 0.000000
								}
							}
						}
						JOINT HairB
						{
							OFFSET -10.777430 17.437408 1.467893
							CHANNELS 3 Xrotation Yrotation Zrotation
							JOINT HairB1
							{
								OFFSET -1.561211 -12.956329 3.590162
								CHANNELS 3 Xrotation Yrotation Zrotation
								End Site
								{
									OFFSET 0.000000 13.534882 0.000000
								}
							}
						}
						JOINT HairA
						{
							OFFSET 9.713062 17.437408 1.467893
							CHANNELS 3 Xrotation Yrotation Zrotation
							JOINT HairA1
							{
								OFFSET 1.561211 -12.956329 3.590162
								CHANNELS 3 Xrotation Yrotation Zrotation
								End Site
								{
									OFFSET 0.000000 13.534882 0.000000
								}
							}
						}
						JOINT HairC
						{
							OFFSET 9.713062 17.437408 -1.325938
							CHANNELS 3 Xrotation Yrotation Zrotation
							JOINT HairC1
							{
								OFFSET 3.290255 -11.051163 1.062188
								CHANNELS 3 Xrotation Yrotation Zrotation
								End Site
								{
									OFFSET 0.000000 11.579391 0.000000
								}
							}
						}
					}
				}
				JOINT LeftShoulder
				{
					OFFSET 5.101767 15.108002 -2.763695
					CHANNELS 3 Xrotation Yrotation Zrotation
					JOINT LeftArm
					{
						OFFSET 9.825546 2.506256 -1.597438
						CHANNELS 3 Xrotation Yrotation Zrotation
						JOINT LeftForeArm
						{
							OFFSET 21.924620 0.000000 -1.351923
							CHANNELS 3 Xrotation Yrotation Zrotation
							JOINT LeftHand
							{
								OFFSET 33.867149 -0.000336 -0.895185
								CHANNELS 3 Xrotation Yrotation Zrotation
								JOINT LeftHandThumb1
								{
									OFFSET 6.800735 -1.610214 3.624442
									CHANNELS 3 Xrotation Yrotation Zrotation
									JOINT LeftHandThumb2
									{
										OFFSET 2.133118 -1.047562 2.197256
										CHANNELS 3 Xrotation Yrotation Zrotation
										JOINT LeftHandThumb3
										{
											OFFSET 2.939781 -1.955193 1.239051
											CHANNELS 3 Xrotation Yrotation Zrotation
											End Site
											{
												OFFSET 0.000000 3.741707 0.000000
											}
										}
									}
								}
								JOINT LeftHandIndex1
								{
									OFFSET 14.184837 0.837936 3.778969
									CHANNELS 3 Xrotation Yrotation Zrotation
									JOINT LeftHandIndex2
									{
										OFFSET 3.454674 -0.747025 -0.349037
										CHANNELS 3 Xrotation Yrotation Zrotation
										JOINT LeftHandIndex3
										{
											OFFSET 2.708313 -1.000595 -0.200658
											CHANNELS 3 Xrotation Yrotation Zrotation
											End Site
											{
												OFFSET 0.000000 2.894211 0.000000
											}
										}
									}
								}
								JOINT LeftHandMiddle1
								{
									OFFSET 13.765343 0.551865 -0.058510
									CHANNELS 3 Xrotation Yrotation Zrotation
									JOINT LeftHandMiddle2
									{
										OFFSET 3.329315 -0.830414 -0.218270
										CHANNELS 3 Xrotation Yrotation Zrotation
										JOINT LeftHandMiddle3
										{
											OFFSET 3.521812 -1.082275 -0.230450
											CHANNELS 3 Xrotation Yrotation Zrotation
											End Site
											{
												OFFSET 0.000000 3.691559 0.000000
											}
										}
									}
								}
								JOINT LeftHandRing1
								{
									OFFSET 13.969360 -0.122360 -3.062001
									CHANNELS 3 Xrotation Yrotation Zrotation
									JOINT LeftHandRing2
									{
										OFFSET 3.063065 -0.760193 -0.203345
										CHANNELS 3 Xrotation Yrotation Zrotation
										JOINT LeftHandRing3
										{
											OFFSET 3.200409 -0.861923 -0.256632
											CHANNELS 3 Xrotation Yrotation Zrotation
											End Site
											{
												OFFSET 0.000000 3.324356 0.000000
											}
										}
									}
								}
								JOINT LeftHandPinky1
								{
									OFFSET 13.134644 -0.420990 -5.726565
									CHANNELS 3 Xrotation Yrotation Zrotation
									JOINT LeftHandPinky2
									{
										OFFSET 2.705887 -0.872284 -0.187246
										CHANNELS 3 Xrotation Yrotation Zrotation
										JOINT LeftHandPinky3
										{
											OFFSET 2.653091 -0.882462 -0.224701
											CHANNELS 3 Xrotation Yrotation Zrotation
											End Site
											{
												OFFSET 0.000000 2.805023 0.000000
											}
										}
									}
								}
							}
							JOINT Left_Sleeve
							{
								OFFSET 6.611050 -0.646652 0.631114
								CHANNELS 3 Xrotation Yrotation Zrotation
								End Site
								{
									OFFSET 0.000000 20.275742 0.000000
								}
							}
						}
					}
				}
				JOINT RightShoulder
				{
					OFFSET -5.731749 15.108002 -2.763695
					CHANNELS 3 Xrotation Yrotation Zrotation
					JOINT RightArm
					{
						OFFSET -9.825546 2.506256 -1.597438
						CHANNELS 3 Xrotation Yrotation Zrotation
						JOINT RightForeArm
						{
							OFFSET -21.924620 0.000000 -1.351923
							CHANNELS 3 Xrotation Yrotation Zrotation
							JOINT RightHand
							{
								OFFSET -33.867149 -0.000336 -0.895185
								CHANNELS 3 Xrotation Yrotation Zrotation
								JOINT RightHandThumb1
								{
									OFFSET -6.800735 -1.610214 3.624442
									CHANNELS 3 Xrotation Yrotation Zrotation
									JOINT RightHandThumb2
									{
										OFFSET -2.133118 -1.047562 2.197256
										CHANNELS 3 Xrotation Yrotation Zrotation
										JOINT RightHandThumb3
										{
											OFFSET -2.939781 -1.955193 1.239051
											CHANNELS 3 Xrotation Yrotation Zrotation
											End Site
											{
												OFFSET 0.000000 3.741707 0.000000
											}
										}
									}
								}
								JOINT RightHandIndex1
								{
									OFFSET -14.184837 0.837936 3.778969
									CHANNELS 3 Xrotation Yrotation Zrotation
									JOINT RightHandIndex2
									{
										OFFSET -3.454674 -0.747025 -0.349037
										CHANNELS 3 Xrotation Yrotation Zrotation
										JOINT RightHandIndex3
										{
											OFFSET -2.708313 -1.000595 -0.200658
											CHANNELS 3 Xrotation Yrotation Zrotation
											End Site
											{
												OFFSET 0.000000 2.894211 0.000000
											}
										}
									}
								}
								JOINT RightHandMiddle1
								{
									OFFSET -13.765343 0.551865 -0.058511
									CHANNELS 3 Xrotation Yrotation Zrotation
									JOINT RightHandMiddle2
									{
										OFFSET -3.329315 -0.830414 -0.218269
										CHANNELS 3 Xrotation Yrotation Zrotation
										JOINT RightHandMiddle3
										{
											OFFSET -3.521812 -1.082275 -0.230450
											CHANNELS 3 Xrotation Yrotation Zrotation
											End Site
											{
												OFFSET 0.000000 3.691559 0.000000
											}
										}
									}
								}
								JOINT RightHandRing1
								{
									OFFSET -13.969353 -0.122360 -3.062001
									CHANNELS 3 Xrotation Yrotation Zrotation
									JOINT RightHandRing2
									{
										OFFSET -3.063072 -0.760193 -0.203345
										CHANNELS 3 Xrotation Yrotation Zrotation
										JOINT RightHandRing3
										{
											OFFSET -3.200409 -0.861923 -0.256632
											CHANNELS 3 Xrotation Yrotation Zrotation
											End Site
											{
												OFFSET 0.000000 3.324356 0.000000
											}
										}
									}
								}
								JOINT RightHandPinky1
								{
									OFFSET -13.134644 -0.420990 -5.726565
									CHANNELS 3 Xrotation Yrotation Zrotation
									JOINT RightHandPinky2
									{
										OFFSET -2.705887 -0.872284 -0.187247
										CHANNELS 3 Xrotation Yrotation Zrotation
										JOINT RightHandPinky3
										{
											OFFSET -2.653091 -0.882462 -0.224700
											CHANNELS 3 Xrotation Yrotation Zrotation
											End Site
											{
												OFFSET 0.000000 2.805023 0.000000
											}
										}
									}
								}
							}
							JOINT Right_Sleeve
							{
								OFFSET -6.611050 -0.646652 0.631114
								CHANNELS 3 Xrotation Yrotation Zrotation
								End Site
								{
									OFFSET 0.000000 20.275742 0.000000
								}
							}
						}
					}
				}
				JOINT Bind_Right_JacketString
				{
					OFFSET -3.534774 11.969604 7.200667
					CHANNELS 3 Xrotation Yrotation Zrotation
					JOINT Bind_Right_JacketString1
					{
						OFFSET -0.319887 -6.102631 2.794061
						CHANNELS 3 Xrotation Yrotation Zrotation
						End Site
						{
							OFFSET 0.000000 6.719467 0.000000
						}
					}
				}
				JOINT Bind_Left_JacketString
				{
					OFFSET 2.904793 11.969604 7.200667
					CHANNELS 3 Xrotation Yrotation Zrotation
					JOINT Bind_Left_JacketString1
					{
						OFFSET 0.364847 -5.904457 3.186764
						CHANNELS 3 Xrotation Yrotation Zrotation
						End Site
						{
							OFFSET 0.000000 6.719460 0.000000
						}
					}
				}
				JOINT HairE
				{
					OFFSET 5.915198 17.612656 -11.592244
					CHANNELS 3 Xrotation Yrotation Zrotation
					JOINT HairE1
					{
						OFFSET 0.289203 -7.171906 -1.284488
						CHANNELS 3 Xrotation Yrotation Zrotation
						End Site
						{
							OFFSET 0.000000 7.291763 0.000000
						}
					}
				}
				JOINT HairF
				{
					OFFSET -0.864797 17.612656 -11.592244
					CHANNELS 3 Xrotation Yrotation Zrotation
					JOINT HairF1
					{
						OFFSET -0.000000 -14.087097 -2.127508
						CHANNELS 3 Xrotation Yrotation Zrotation
						End Site
						{
							OFFSET 0.000000 14.246841 0.000000
						}
					}
				}
				JOINT HairG
				{
					OFFSET -8.087694 17.612656 -11.592244
					CHANNELS 3 Xrotation Yrotation Zrotation
					JOINT HairG1
					{
						OFFSET -0.293551 -6.081375 -0.910136
						CHANNELS 3 Xrotation Yrotation Zrotation
						End Site
						{
							OFFSET 0.000000 6.156113 0.000000
						}
					}
				}
			}
		}
	}
	JOINT Pouch
	{
		OFFSET 0.000000 4.394547 10.847303
		CHANNELS 3 Xrotation Yrotation Zrotation
		End Site
		{
			OFFSET 0.000000 21.880577 0.000000
		}
	}
	JOINT Bag
	{
		OFFSET -13.229022 4.813034 -0.593262
		CHANNELS 3 Xrotation Yrotation Zrotation
		End Site
		{
			OFFSET 0.000000 21.880577 0.000000
		}
	}
	JOINT OccupyGuyFacialAnim_Joint
	{
		OFFSET 1.000000 -70.206352 -1.654994
		CHANNELS 3 Xrotation Yrotation Zrotation
		End Site
		{
			OFFSET 0.000000 21.880581 0.000000
		}
	}
}
MOTION
Frames: 4
Frame Time: 0.016667
2.474349 85.234650 6.925508 -12.479675 -0.971298 -1.814797 0.000001 -0.000000 -0.000000 1.277359 -15.677975 7.731626 91.028861 15.720259 -3.989449 9.781867 7.027080 21.142285 0.000001 -0.000002 0.000001 0.000001 0.000001 0.000000 -1.082800 15.208229 -12.833048 66.333704 3.037785 -4.128294 16.081342 -1.449244 2.692838 0.000001 -0.000001 0.000000 0.000000 0.000001 -0.000001 -3.008842 -2.577198 2.808894 1.341453 -0.394057 2.093239 1.345709 -0.282895 2.116648 9.657578 -4.849569 7.404078 10.314038 -25.265829 25.481336 0.000001 0.000000 -0.000003 0.000001 0.000000 -0.000003 0.000001 -0.000000 -0.000000 0.000001 0.000000 -0.000004 0.000001 0.000000 -0.000004 0.000001 0.000000 -0.000004 0.000001 0.000000 -0.000004 0.000001 0.000000 -0.000003 0.000001 -0.000000 -0.000000 0.516763 0.363761 -1.548713 -67.400539 8.148842 -6.269178 0.000214 -101.308747 0.000714 38.116479 -9.212020 55.536716 -29.101892 9.436201 -0.674153 -11.742553 -6.035613 14.055261 -0.000002 -0.000001 -0.000001 2.282338 -4.722161 28.835300 0.942445 1.459116 7.092897 -0.000001 -0.000001 -0.000000 0.165876 1.842442 28.617374 0.008523 -0.019466 0.212441 -0.000001 0.000002 0.000002 -1.080160 7.790688 26.154505 -0.535920 -0.760171 -4.184649 -0.000000 0.000000 -0.000001 -2.384516 17.200117 28.073794 -2.077801 -4.674931 -6.654174 -0.000000 0.000001 0.000002 0.000000 0.000000 0.000001 0.412529 -1.336042 6.758817 -57.185718 -4.555506 -3.344801 0.000701 96.470125 -0.001201 16.436825 23.766900 -68.242107 -10.896245 -5.443650 -7.277922 -6.446994 5.305692 -4.420019 -0.000000 0.000001 0.000001 -0.003516 5.589209 -4.753681 0.897975 -1.447045 -6.512795 -0.000000 -0.000001 0.000001 0.633557 -0.885387 -7.204295 0.137482 -0.002227 -2.100893 0.000000 0.000001 0.000004 1.199083 -6.441191 -7.864672 -0.127031 0.740781 -0.806918 -0.000000 0.000000 0.000000 1.723811 -11.370043 -12.371420 -0.217169 0.799348 -0.526509 -0.000000 0.000000 0.000001 0.000000 0.000000 0.000001 -0.000001 0.000000 0.000000 -0.000001 0.000000 0.000000 -0.000001 0.000000 0.000000 -0.000001 0.000000 0.000000 -0.000001 0.000000 0.000000 -0.000001 -0.000000 0.000001 -0.000001 0.000000 0.000000 -0.000001 0.000000 0.000000 -0.000001 0.000000 0.000000 -0.000001 -0.000000 0.000000 0.000001 -0.000000 -0.000000 0.000001 -0.000000 -0.000000 0.000001 -0.000000 -0.000000 
2.386749 85.095474 6.877795 -11.452332 -1.213556 -2.222778 0.000001 0.000000 0.000000 0.242677 -10.859956 7.064956 82.263720 12.357327 -1.877973 7.118503 4.929560 19.179310 -0.000000 -0.000001 -0.000001 0.000000 -0.000001 -0.000000 -1.096521 10.740800 -11.501076 56.704049 5.039629 -4.959744 12.355914 1.262826 4.947800 0.000002 -0.000001 0.000000 -0.000000 0.000000 0.000001 -4.337460 -2.987282 3.088207 2.021577 -0.426599 2.098098 2.027287 -0.327235 2.120047 9.516429 -4.818842 7.555536 10.160706 -24.632276 24.655156 0.000003 -0.000002 -0.000002 0.000003 -0.000002 -0.000002 0.000000 0.000001 -0.000000 0.000003 -0.000002 -0.000000 0.000003 -0.000002 -0.000000 0.000003 -0.000002 -0.000000 0.000003 -0.000002 -0.000000 0.000003 -0.000002 -0.000002 0.000000 0.000001 -0.000000 0.564558 0.109993 -2.570460 -65.313179 7.689693 -6.976716 0.000081 -97.941668 0.000589 38.495742 -9.469694 54.509103 -28.598009 9.852614 -0.324818 -11.682641 -5.995392 13.940849 -0.000003 -0.000001 -0.000001 2.232546 -4.754184 28.257725 0.930545 1.455397 6.938912 -0.000002 -0.000004 -0.000002 0.237595 1.623954 27.884621 -0.013545 -0.022571 -0.110596 -0.000000 0.000001 -0.000003 -0.861222 7.327739 25.209303 -0.579723 -0.760088 -4.718859 0.000001 0.000001 -0.000000 -1.925698 16.524982 26.892710 -2.136831 -4.669360 -7.349917 0.000001 -0.000000 -0.000001 -0.000001 0.000000 -0.000001 0.561008 -1.704312 9.089297 -54.652670 -7.296633 -2.192130 0.001067 93.928645 -0.001589 16.577190 27.525905 -66.697965 -10.601611 -5.897449 -7.454975 -6.446990 5.305694 -4.420023 -0.000002 -0.000001 -0.000001 -0.024308 5.592248 -4.547963 0.881700 -1.442372 -6.301985 -0.000001 0.000001 -0.000003 0.618192 -0.719360 -6.862207 0.124754 -0.000193 -1.912518 -0.000000 -0.000002 -0.000001 1.215583 -6.068505 -7.351596 -0.138212 0.741651 -0.669404 -0.000000 0.000000 -0.000001 1.800594 -10.808725 -11.702507 -0.217171 0.799352 -0.526521 -0.000001 -0.000000 -0.000001 -0.000000 -0.000001 -0.000001 0.000000 0.000000 -0.000000 0.000000 0.000000 -0.000000 0.000000 0.000000 -0.000000 0.000000 0.000000 -0.000000 0.000000 0.000000 -0.000000 -0.000001 0.000000 0.000000 0.000000 0.000000 -0.000000 0.000000 0.000000 -0.000000 0.000000 0.000000 -0.000000 -0.000000 0.000000 0.000000 0.000001 0.000000 0.000000 0.000001 0.000000 0.000000 0.000001 0.000000 0.000000 
2.239773 84.683983 6.762259 -10.230762 -1.462450 -2.355015 0.000000 -0.000000 0.000000 -0.848906 -4.746991 6.198554 72.894566 5.734655 1.388412 5.171538 4.617785 16.120297 -0.000002 -0.000001 0.000001 0.000000 0.000000 0.000000 -0.272387 7.283990 -10.319754 45.685462 4.609153 -4.532412 10.543587 6.936199 7.192477 0.000002 -0.000000 -0.000001 0.000000 0.000000 0.000000 -6.270546 -3.348964 3.027909 2.861512 -0.453707 2.096757 2.868639 -0.368868 2.115152 9.329690 -4.722054 7.652866 9.856691 -23.667300 23.679665 0.000000 0.000002 -0.000001 0.000000 0.000002 -0.000001 -0.000001 -0.000001 0.000002 0.000000 0.000002 -0.000001 0.000000 0.000002 -0.000001 0.000000 0.000002 -0.000001 0.000000 0.000002 -0.000001 0.000000 0.000002 -0.000001 -0.000001 -0.000001 0.000002 0.612454 -0.061211 -3.967306 -62.744010 7.448045 -8.360619 0.001515 -94.475238 0.001989 38.048020 -9.593031 52.963377 -28.068944 10.294865 0.034400 -11.619369 -5.952987 13.820063 -0.000000 0.000001 0.000001 2.179459 -4.787569 27.645833 0.917890 1.451503 6.775125 -0.000000 -0.000000 -0.000000 0.311001 1.377272 27.098668 -0.037791 -0.025829 -0.465176 -0.000000 0.000002 -0.000001 -0.637991 6.801531 24.187604 -0.628255 -0.759521 -5.310685 -0.000000 0.000000 0.000001 -1.455844 15.752604 25.615294 -2.202310 -4.662332 -8.122703 -0.000000 0.000000 0.000002 -0.000000 0.000000 -0.000000 0.739616 -2.066468 11.589468 -51.374258 -10.533337 -0.644763 0.007665 91.311658 -0.008243 15.809607 31.035977 -64.104611 -10.292500 -6.375983 -7.636846 -6.446991 5.305694 -4.420026 0.000000 0.000000 0.000000 -0.046179 5.595355 -4.331575 0.864564 -1.437548 -6.080235 0.000001 0.000000 0.000002 0.596635 -0.517977 -6.479204 0.101613 0.003395 -1.571010 -0.000001 0.000000 -0.000001 1.223533 -5.615442 -6.760790 -0.178518 0.744467 -0.174656 -0.000001 -0.000001 0.000002 1.870526 -10.125343 -10.923966 -0.264822 0.800258 0.034066 -0.000000 0.000000 0.000002 -0.000000 -0.000001 -0.000000 -0.000000 -0.000000 0.000000 -0.000000 -0.000000 0.000000 -0.000000 -0.000000 0.000000 -0.000000 -0.000000 0.000000 -0.000000 -0.000000 0.000000 0.000000 0.000000 -0.000000 -0.000000 -0.000000 0.000000 -0.000000 -0.000000 0.000000 -0.000000 -0.000000 0.000000 0.000001 0.000000 -0.000000 0.000000 -0.000000 0.000000 0.000000 -0.000000 0.000000 0.000000 -0.000000 0.000000 
2.078920 83.941193 6.577935 -8.907878 -1.637755 -2.221582 0.000000 0.000000 0.000000 -1.448797 0.538975 5.189357 62.657690 2.921635 3.694471 5.217254 0.117642 12.156389 -0.000000 0.000000 0.000000 -0.000000 0.000000 -0.000000 1.335836 4.872275 -9.302752 34.120043 5.062401 -2.989957 11.042955 11.233983 9.883983 -0.000000 -0.000000 0.000000 0.000000 -0.000000 0.000002 -8.606808 -3.667013 2.671092 3.797968 -0.479770 2.056644 3.806292 -0.410128 2.069781 9.100113 -4.559094 7.670183 9.248859 -22.438379 22.518229 0.000002 0.000001 -0.000000 0.000002 0.000001 -0.000000 0.000000 -0.000001 -0.000002 0.000002 0.000001 -0.000000 0.000002 0.000001 -0.000000 0.000002 0.000001 -0.000000 0.000002 0.000001 -0.000000 0.000002 0.000001 -0.000000 0.000000 -0.000001 -0.000002 0.663780 -0.192290 -5.684428 -59.774278 7.453945 -10.539369 0.019228 -90.986514 0.019761 36.751281 -9.356634 50.663324 -27.516039 10.762373 0.401467 -11.552871 -5.908520 13.693151 0.000002 0.000000 0.000001 2.123161 -4.822128 27.001230 0.904494 1.447411 6.601999 -0.000000 0.000000 0.000002 0.383384 1.105862 26.264009 -0.063995 -0.029175 -0.847956 -0.000002 -0.000003 0.000001 -0.418074 6.219423 23.098163 -0.680920 -0.758364 -5.953007 0.000001 0.000001 0.000000 -0.989931 14.893320 24.255911 -2.273341 -4.653740 -8.962417 0.000001 -0.000001 -0.000002 0.000000 0.000000 0.000001 0.853342 -2.433701 12.010735 -46.662674 -15.554567 3.020960 0.016925 88.423212 -0.017468 13.940094 34.016316 -60.499049 -9.969743 -6.878208 -7.822427 -6.446992 5.305693 -4.420025 0.000001 0.000001 -0.000004 -0.069102 5.598514 -4.105005 0.846591 -1.432556 -5.848075 0.000000 0.000000 -0.000002 0.568369 -0.286105 -6.059810 0.071763 0.007810 -1.130505 -0.000000 -0.000000 0.000000 1.219175 -5.093027 -6.101846 -0.236007 0.747869 0.530884 0.000000 0.000000 -0.000001 1.924498 -9.336564 -10.050512 -0.341687 0.800784 0.937918 -0.000000 -0.000000 -0.000000 0.000000 -0.000003 -0.000001 -0.000001 0.000001 -0.000000 -0.000001 0.000001 -0.000000 -0.000001 0.000001 -0.000000 -0.000001 0.000001 -0.000000 -0.000001 0.000001 -0.000000 -0.000001 0.000000 -0.000000 -0.000001 0.000001 -0.000000 -0.000001 0.000001 -0.000000 -0.000001 0.000001 -0.000000 -0.000000 0.000000 -0.000001 0.000000 0.000000 0.000000 0.000000 0.000000 0.000000 0.000000 0.000000 0.000000 
